<svg width="32" height="32" viewBox="0 0 32 32" fill="none" xmlns="http://www.w3.org/2000/svg">
<path d="M4 9.33333V6.66667C4 5.95942 4.28095 5.28115 4.78105 4.78105C5.28115 4.28095 5.95942 4 6.66667 4H9.33333" stroke="#15803D" stroke-width="2" stroke-linecap="round" stroke-linejoin="round"/>
<path d="M22.6667 4H25.3334C26.0407 4 26.7189 4.28095 27.219 4.78105C27.7191 5.28115 28.0001 5.95942 28.0001 6.66667V9.33333" stroke="#15803D" stroke-width="2" stroke-linecap="round" stroke-linejoin="round"/>
<path d="M28.0001 22.6667V25.3333C28.0001 26.0406 27.7191 26.7188 27.219 27.2189C26.7189 27.719 26.0407 28 25.3334 28H22.6667" stroke="#15803D" stroke-width="2" stroke-linecap="round" stroke-linejoin="round"/>
<path d="M9.33333 28H6.66667C5.95942 28 5.28115 27.719 4.78105 27.2189C4.28095 26.7188 4 26.0406 4 25.3333V22.6667" stroke="#15803D" stroke-width="2" stroke-linecap="round" stroke-linejoin="round"/>
<path d="M16.0001 18.2857C17.2624 18.2857 18.2858 17.2624 18.2858 16C18.2858 14.7376 17.2624 13.7143 16.0001 13.7143C14.7377 13.7143 13.7144 14.7376 13.7144 16C13.7144 17.2624 14.7377 18.2857 16.0001 18.2857Z" stroke="#15803D" stroke-width="2" stroke-linecap="round" stroke-linejoin="round"/>
<path d="M25.2588 16.44C25.3584 16.1551 25.3584 15.8449 25.2588 15.56C24.5081 13.7206 23.2265 12.1464 21.5775 11.0383C19.9285 9.93028 17.9868 9.3385 16.0001 9.3385C14.0134 9.3385 12.0717 9.93028 10.4227 11.0383C8.7737 12.1464 7.49212 13.7206 6.74144 15.56C6.64185 15.8449 6.64185 16.1551 6.74144 16.44C7.49212 18.2794 8.7737 19.8536 10.4227 20.9616C12.0717 22.0697 14.0134 22.6615 16.0001 22.6615C17.9868 22.6615 19.9285 22.0697 21.5775 20.9616C23.2265 19.8536 24.5081 18.2794 25.2588 16.44Z" stroke="#15803D" stroke-width="2" stroke-linecap="round" stroke-linejoin="round"/>
</svg>

