<svg width="450" height="450" viewBox="0 0 450 450" fill="none" xmlns="http://www.w3.org/2000/svg">
<rect width="450" height="450" fill="white"/>
<path d="M104.772 129.77C109.448 128.01 114.725 129.331 118.02 133.086L160.936 182H289.064L331.98 133.086C335.275 129.331 340.552 128.01 345.228 129.77C349.904 131.531 353 136.004 353 141V249H391V273H329V172.873L303.52 201.915C301.242 204.511 297.955 206 294.5 206H155.5C152.045 206 148.758 204.511 146.48 201.915L121 172.873V273H59V249H97V141C97 136.004 100.096 131.531 104.772 129.77Z" fill="black"/>
<path d="M329 297H391V321H329V297Z" fill="black"/>
<path d="M59 297H121V321H59V297Z" fill="black"/>
<path d="M187 257C187 265.837 179.837 273 171 273C162.163 273 155 265.837 155 257C155 248.164 162.163 241 171 241C179.837 241 187 248.164 187 257Z" fill="black"/>
<path d="M295 257C295 265.837 287.837 273 279 273C270.163 273 263 265.837 263 257C263 248.164 270.163 241 279 241C287.837 241 295 248.164 295 257Z" fill="black"/>
</svg>
